<?xml version="1.0" encoding="utf-8"?>
<!-- Generator: Adobe Illustrator 19.2.1, SVG Export Plug-In . SVG Version: 6.00 Build 0)  -->
<svg version="1.1" id="图层_1" xmlns="http://www.w3.org/2000/svg" xmlns:xlink="http://www.w3.org/1999/xlink" x="0px" y="0px"
	 viewBox="0 0 50 50" style="enable-background:new 0 0 50 50;" xml:space="preserve">
<style type="text/css">
	.st0{fill:none;stroke:#202020;stroke-width:2;stroke-linecap:round;stroke-miterlimit:10;}
</style>
<g id="Layer_7">
	<path fill="#202020" d="M25.5,15.9c2.9,0,5.9-0.7,8.1-2.2c2,0.9,3.8,2,5.4,3.4c7.6,6.9,7.6,18,0,24.8c-7.7,6.9-20.3,6.9-27.9,0
		c-7.6-6.9-7.6-18,0-24.8c1.7-1.5,3.7-2.8,6-3.7C19.3,15.1,22.4,15.9,25.5,15.9 M37.4,6c-3-0.5-5.4-0.7-8.3,0.8
		c-0.4-3.1-1.4-4.6-3.7-6.8c-2.3,2.1-3.3,3.7-3.7,6.8C19,5.3,16.5,5.5,13.5,6c0.1,2.1,0.2,3.5,1.4,5.3c-2.1,1-4,2.2-5.7,3.8
		c-8.8,8-8.8,21,0,29c8.7,7.9,23,7.9,31.7,0c8.8-8,8.8-21,0-29c-1.5-1.3-3.2-2.5-5-3.4C37.2,9.8,37.3,8.2,37.4,6z M18.5,18l-1-2.3
		c-5.7,2.4-9.9,7.5-9.9,13.8h2.5C10.1,24.2,13.7,20.1,18.5,18z M34.3,8.4c-1,3.1-4.9,4.7-8.9,4.7c-3.9,0-7.9-1.6-8.9-4.7
		c3.9-0.1,5.7,2.1,8.4,4.4c-0.4-3-1-5.7,0.5-8.6c1.5,2.9,0.9,5.6,0.5,8.6C28.6,10.5,30.4,8.3,34.3,8.4z"/>
	<circle fill="#202020" cx="25.7" cy="33.6" r="2.2"/>
	<polyline fill="#202020" class="st0" points="19.9,39.4 25.7,33.6 25.7,19.8 "/>
</g>
</svg>
